<?xml version="1.0" encoding="UTF-8" standalone="no"?>
<svg
   xmlns:dc="http://purl.org/dc/elements/1.1/"
   xmlns:cc="http://creativecommons.org/ns#"
   xmlns:rdf="http://www.w3.org/1999/02/22-rdf-syntax-ns#"
   xmlns:svg="http://www.w3.org/2000/svg"
   xmlns="http://www.w3.org/2000/svg"
   xmlns:sodipodi="http://sodipodi.sourceforge.net/DTD/sodipodi-0.dtd"
   xmlns:inkscape="http://www.inkscape.org/namespaces/inkscape"
   width="186.07149mm"
   height="105.77866mm"
   viewBox="0 0 186.07149 105.77866"
   version="1.1"
   id="svg8"
   inkscape:version="0.92.4 (5da689c313, 2019-01-14)"
   sodipodi:docname="chilloi.svg">
  <defs
     id="defs2" />
  <sodipodi:namedview
     id="base"
     pagecolor="#ffffff"
     bordercolor="#666666"
     borderopacity="1.0"
     inkscape:pageopacity="0.0"
     inkscape:pageshadow="2"
     inkscape:zoom="0.5448313"
     inkscape:cx="50.558519"
     inkscape:cy="193.82003"
     inkscape:document-units="mm"
     inkscape:current-layer="g992"
     inkscape:document-rotation="0"
     showgrid="false"
     inkscape:snap-global="false"
     inkscape:window-width="1920"
     inkscape:window-height="1001"
     inkscape:window-x="-9"
     inkscape:window-y="-9"
     inkscape:window-maximized="1"
     showborder="true"
     units="px"
     fit-margin-left="-0.5"
     fit-margin-top="0"
     fit-margin-right="0"
     fit-margin-bottom="0" />
  <metadata
     id="metadata5">
    <rdf:RDF>
      <cc:Work
         rdf:about="">
        <dc:format>image/svg+xml</dc:format>
        <dc:type
           rdf:resource="http://purl.org/dc/dcmitype/StillImage" />
        <dc:title></dc:title>
      </cc:Work>
    </rdf:RDF>
  </metadata>
  <g
     inkscape:label="Layer 1"
     inkscape:groupmode="layer"
     id="layer1"
     transform="translate(-159.58839,-106.30353)">
    <g
       id="g1241"
       transform="matrix(0.82151348,0.70833226,-0.67723239,0.7854443,155.09969,-40.08523)">
      <g
         id="g1157"
         transform="matrix(0.94614777,-0.33860163,0.30952123,0.94614777,-40.345122,24.408781)">
        <g
           id="g1074">
          <g
             id="g992"
             transform="translate(2.49163,0.32805243)">
            <g
               id="g1223"
               transform="matrix(0.99457553,0.00108958,9.9600497e-4,0.99675122,75.58287,-32.771151)">
              <g
                 id="g1304"
                 transform="matrix(0.50712951,0.89837421,-0.82481522,0.51073208,218.42869,45.910903)">
                <path
                   id="path1050"
                   d="m 63.974629,84.299585 c -1.103798,-0.666833 -2.050185,-1.253605 -2.103107,-1.303935 -0.08033,-0.07636 -0.08271,-0.195824 -0.01488,-0.721384 0.07736,-0.598763 0.587387,-3.740132 0.668764,-4.11886 0.0382,-0.177822 0.04558,-0.174316 1.29746,0.611617 0.692447,0.434756 1.484516,0.925628 1.760138,1.090824 l 0.50113,0.300362 -0.0083,1.688848 c -0.0048,0.928867 -0.02761,2.133472 -0.05129,2.6769 l -0.04296,0.988052 z"
                   style="fill:#e6e6e6;stroke:none;stroke-width:0.0683735"
                   inkscape:connector-curvature="0" />
                <path
                   sodipodi:nodetypes="cssscssscc"
                   id="path1048"
                   d="m 65.591053,82.473869 c 0,-1.38717 0.01583,-2.522128 0.03487,-2.522128 0.01928,0 0.36739,0.199296 0.773623,0.442877 0.726829,0.435826 5.842334,3.537683 6.296563,3.818006 l 0.232708,0.143616 -0.412612,0.04755 c -0.226936,0.02615 -1.675571,0.151995 -3.219175,0.279651 -1.543603,0.127655 -3.008959,0.250204 -3.25634,0.272331 l -0.718463,0.539236 z"
                   style="fill:#f9f9f9;stroke:none;stroke-width:0.0690386"
                   inkscape:connector-curvature="0" />
                <path
                   id="path1038"
                   d="m 74.23876,96.802653 c -0.123947,-0.07712 -0.993264,-0.611169 -1.931784,-1.186714 -2.293721,-1.406593 -5.191063,-3.228666 -5.8445,-3.675462 l -0.532048,-0.363794 1.079163,-1.246293 c 0.593552,-0.685452 1.789212,-2.031322 2.657029,-2.990815 0.867829,-0.959483 1.857368,-2.053859 2.198956,-2.431937 0.341612,-0.378078 0.641119,-0.667076 0.665564,-0.642215 0.0244,0.02485 0.144475,0.632844 0.266732,1.351075 0.122245,0.718234 0.278812,1.609873 0.347931,1.981424 0.06914,0.37154 0.140668,0.803636 0.159007,0.9602 0.01833,0.156563 0.263245,1.722126 0.544294,3.479031 0.682998,4.269907 0.773563,4.918289 0.686021,4.911388 -0.03903,-0.0032 -0.172407,-0.0688 -0.296365,-0.145888 z"
                   style="fill:#f2f2f2;stroke:none;stroke-width:0.0659546"
                   inkscape:connector-curvature="0" />
                <path
                   id="path1022"
                   d="m 73.691966,105.41067 c -0.253177,-0.0738 -0.524575,-0.10346 -0.603155,-0.0659 -0.07855,0.0374 -0.159316,0.0223 -0.179452,-0.0336 -0.02011,-0.056 -0.533846,-0.22354 -1.141607,-0.37229 -0.607773,-0.14875 -1.134919,-0.2912 -1.171478,-0.31656 -0.03654,-0.0253 0.02702,-1.13984 0.141298,-2.4766 0.114248,-1.33676 0.209585,-2.777472 0.211846,-3.201582 0.0036,-0.763756 0.0083,-0.77326 0.469367,-0.998396 0.255903,-0.125005 0.465285,-0.280472 0.465285,-0.34547 0,-0.06506 0.07843,-0.08064 0.174478,-0.03488 0.09592,0.04576 0.174477,0.01312 0.174477,-0.07221 0,-0.08554 0.07855,-0.118136 0.174477,-0.07232 0.09592,0.04576 0.174478,0.01323 0.174478,-0.07232 0,-0.08554 0.07855,-0.118104 0.174489,-0.07221 0.09592,0.04576 0.174454,0.01312 0.174454,-0.07231 0,-0.08554 0.07854,-0.118115 0.174477,-0.07232 0.09592,0.04576 0.174502,0.01323 0.174502,-0.07221 0,-0.08554 0.07843,-0.118136 0.174453,-0.07232 0.09592,0.04576 0.174716,0.02741 0.175013,-0.04064 2.14e-4,-0.06815 0.178417,-0.135191 0.395856,-0.148886 0.489979,-0.03082 0.467677,-0.1576 0.704503,4.003024 0.09735,1.7106 0.208704,3.48448 0.247405,3.94197 l 0.07045,0.83178 -0.447612,-0.0145 c -0.246192,-0.007 -0.654746,-0.0748 -0.907923,-0.14864 z"
                   style="fill:#f2f2f2;stroke:none;stroke-width:0.12971701"
                   inkscape:connector-curvature="0" />
                <path
                   sodipodi:nodetypes="ssccscccssss"
                   id="path960"
                   d="m 93.906298,130.73901 c -0.971164,-0.78208 -4.560608,-3.548 -7.976538,-6.14647 l -6.210795,-4.7245 0.118532,-7.75335 c 0.0651,-4.26435 -0.02987,-8.01236 -0.211191,-8.32894 -0.181321,-0.31658 -0.114367,-0.58915 0.148926,-0.60571 0.263234,-0.0166 0.436786,-0.90451 0.409116,-1.59793 -0.04498,-1.12998 0.164609,-0.66791 1.855675,1.8012 3.159124,4.61255 7.852972,13.08323 10.018725,18.08021 2.51403,5.80051 3.31936,10.58591 3.021817,10.85148 -0.122519,0.10936 -0.20308,-0.79389 -1.17422,-1.57599 z"
                   style="fill:#40fc00;stroke:none;stroke-width:0.43836299"
                   inkscape:connector-curvature="0" />
                <path
                   sodipodi:nodetypes="sscsssscs"
                   id="path952"
                   d="m 86.41956,156.38369 c -0.930677,-2.80158 -2.843169,-8.6165 -4.249973,-12.92206 l -2.557812,-7.82828 1.84511,-0.73945 c 2.50364,-1.00334 12.610112,-4.60975 13.170068,-4.60975 0.25288,0 -0.03831,0.92326 -0.172398,1.56576 -0.131254,0.62895 -1.55911,7.50281 -3.173,15.27526 -1.613901,7.77245 -2.987323,16.3256 -3.052099,16.38625 -0.06474,0.0607 -0.879195,-4.32616 -1.809896,-7.12773 z"
                   style="fill:#10cc00;stroke:none;stroke-width:0.42965901"
                   inkscape:connector-curvature="0" />
                <path
                   sodipodi:nodetypes="sssssscccss"
                   id="path1040"
                   d="m 65.379088,90.55694 c -0.979339,-1.265036 -1.570511,-2.089481 -1.570511,-2.190187 0,-0.04896 -0.196166,-0.376264 -0.06056,-0.586733 0.298471,-0.463269 1.721338,-2.851065 1.780033,-2.915576 0.02297,-0.02526 1.579135,0.08544 2.942061,-0.0355 1.362914,-0.12094 2.909695,-0.264784 3.437328,-0.319649 0.52761,-0.05488 0.973604,-0.08644 0.991074,-0.07018 0.01738,0.01626 -0.220248,0.29312 -0.5283,0.615233 -0.912255,0.953997 -6.229122,6.326512 -6.27939,6.345135 -0.02547,0.0096 -0.34573,-0.369714 -0.711739,-0.842536 z"
                   style="fill:#ececec;stroke:none;stroke-width:0.0646863"
                   inkscape:connector-curvature="0" />
                <path
                   sodipodi:nodetypes="scscsss"
                   id="path972"
                   d="m 75.057701,105.75109 c -0.282359,-1.0489 -0.636919,-4.40926 -0.628814,-5.959702 0.0048,-0.798708 -0.438782,-4.712309 -0.984374,-8.69687 -0.545591,-3.984595 -0.8378,-7.636994 -0.790138,-7.694211 0.0476,-0.05723 1.850546,4.398859 4.14716,9.48017 4.747414,10.503733 4.702262,9.276513 0.446767,12.144523 -1.490514,1.00457 -2.064441,1.19477 -2.190601,0.72609 z"
                   style="fill:#00a800;stroke:none;stroke-width:0.44178799"
                   inkscape:connector-curvature="0" />
                <path
                   style="fill:#007400;stroke:none;stroke-width:0.0717189"
                   d="m 12.876208,61.008961 c 0,-0.0382 0.969164,-1.270261 1.926214,-2.44867 l 0.64225,-0.790794 0.574117,0.385982 c 0.830818,0.558532 0.917515,0.727067 0.703622,1.367851 -0.02571,0.07691 -0.34849,0.230239 -0.945172,0.448898 -0.498393,0.182654 -1.355035,0.49822 -1.903614,0.701259 -0.548579,0.203038 -0.997417,0.354002 -0.997417,0.335474 z"
                   id="path1137"
                   inkscape:connector-curvature="0" />
                <path
                   style="fill:#003800;stroke:none;stroke-width:0.0500553"
                   d="m 39.245995,71.398283 c -0.116389,-0.212545 -1.206049,-3.71675 -1.448421,-4.658005 -0.123958,-0.481437 -0.280085,-1.243398 -0.280085,-1.367045 0,-0.03779 0.01833,-0.06872 0.0407,-0.06872 0.08807,0 6.515586,3.467448 6.634046,3.578879 0.04986,0.04692 -0.111034,0.160411 -0.759948,0.535805 -1.877064,1.085942 -2.961904,1.644095 -3.722733,1.915364 -0.384384,0.137048 -0.420693,0.142038 -0.463583,0.06372 z"
                   id="path1095"
                   inkscape:connector-curvature="0" />
                <path
                   id="path961"
                   style="fill:#0cc800;fill-rule:evenodd;stroke-width:0.25060001"
                   d="m 54.053669,64.182484 c -1.134693,4.99e-4 -2.271575,0.100975 -3.399365,0.300737 -7.41782,1.31404 -13.799534,6.785764 -16.741158,14.353992 -2.941637,7.568075 -1.996417,16.082848 2.479612,22.336927 L 53.133928,86.820154 69.875086,72.466652 c -2.001141,-2.796079 -4.585242,-4.965584 -7.510253,-6.381783 -2.562918,-1.240881 -5.387581,-1.903426 -8.311164,-1.902385 z"
                   sodipodi:nodetypes="scccccss"
                   inkscape:connector-curvature="0" />
                <path
                   style="fill:#a0a0a0;stroke:none;stroke-width:0.52291697"
                   d=""
                   id="path977"
                   transform="scale(0.26458333)"
                   inkscape:connector-curvature="0" />
                <path
                   style="fill:#00c800;stroke:none;stroke-width:0.0466979"
                   d="m 60.765855,243.00255 c 0,-0.015 0.204313,-0.43984 0.454039,-0.94418 1.235801,-2.49591 2.818689,-6.01251 3.82383,-8.49518 0.125851,-0.31086 0.244597,-0.5652 0.263864,-0.5652 0.01928,0 1.328913,-0.60369 2.910302,-1.34154 1.5814,-0.73784 2.907124,-1.3545 2.94604,-1.37038 0.106155,-0.0433 0.02559,0.0677 -1.346979,1.85837 -2.693208,3.51336 -5.32152,6.69557 -8.288327,10.03503 -0.751773,0.8462 -0.762769,0.85807 -0.762769,0.82308 z"
                   id="path1001"
                   inkscape:connector-curvature="0" />
                <path
                   style="fill:#30d400;stroke:none;stroke-width:0.0466979"
                   d="m 65.299496,232.94031 c 1.44679,-3.6479 2.639166,-6.92215 3.692254,-10.13885 0.236767,-0.72322 0.459288,-1.39798 0.494502,-1.49948 0.05748,-0.16573 0.06165,-0.10924 0.0407,0.55364 -0.07533,2.37922 -0.24524,9.2724 -0.229138,9.29784 0.01702,0.0269 -3.935412,1.89066 -4.009494,1.89066 -0.01642,0 -0.0119,-0.0467 0.01071,-0.10378 z"
                   id="path1007"
                   inkscape:connector-curvature="0" />
                <path
                   sodipodi:nodetypes="sssssccs"
                   style="fill:#94ec00;stroke:none;stroke-width:0.0466979"
                   d="m 69.273014,230.86069 c -7.74e-4,-0.63677 0.150735,-5.95872 0.17024,-5.97869 0.0194,-0.0199 4.537413,1.1864 4.64126,1.2392 0.06236,0.0317 -0.847717,1.35457 -2.366269,3.4395 -0.81718,1.12199 -0.646384,1.07991 -0.697403,0.99934 -0.02975,-0.047 -0.355115,0.0239 -0.960865,0.30839 l -0.786487,0.36948 z"
                   id="path1019"
                   inkscape:connector-curvature="0" />
                <path
                   sodipodi:nodetypes="sscscsss"
                   style="fill:#b8f800;stroke:none;stroke-width:0.0466979"
                   d="m 74.156703,226.2844 c 0,-0.0888 -0.07693,-0.15781 -2.8408,-0.9012 l -1.99775,-0.53415 6.298825,-6.0538 c 3.504422,-3.3681 6.495093,-5.99473 6.502769,-5.98886 0.0071,0.005 -0.191341,0.38174 -0.442234,0.83525 -2.091968,3.78135 -4.699025,8.01454 -7.171057,11.64395 -0.704872,1.03489 -0.349753,1.09532 -0.349753,0.99881 z"
                   id="path1023"
                   inkscape:connector-curvature="0" />
                <path
                   sodipodi:nodetypes="cscscsscc"
                   style="fill:#74fc00;stroke:none;stroke-width:0.0466979"
                   d="m 69.294875,222.99848 c 0.01809,-0.91172 0.04272,-1.69234 0.05486,-1.73468 0.01214,-0.0423 -0.0071,-0.0838 -0.04368,-0.0923 -0.0363,-0.009 2.656303,-1.75477 5.983383,-3.88081 3.327091,-2.12603 6.05725,-3.85771 6.067033,-3.84817 0.0095,0.01 -2.103667,1.97743 -4.696574,4.37305 -2.592896,2.39564 -5.316053,5.18238 -6.028919,5.81528 l -1.206007,1.29673 z"
                   id="path1029"
                   inkscape:connector-curvature="0" />
                <path
                   sodipodi:nodetypes="cscscccc"
                   style="fill:#4cfc00;stroke:none;stroke-width:0.0466979"
                   d="m 69.337635,221.20089 c 1.205573,-3.87486 2.488169,-8.707 3.402875,-12.82032 0.262436,-1.18008 0.951286,-4.66583 1.0806,-5.38866 0.03713,-0.2072 0.135958,0.62093 1.445449,6.77557 0.78763,3.7019 1.449778,6.74171 1.471449,6.75513 0.03368,0.0208 -7.237392,4.70019 -7.377024,4.74749 -0.02928,0.01 0.150966,-0.0732 0.166556,-0.12348 z"
                   id="path1033"
                   inkscape:connector-curvature="0" />
                <path
                   sodipodi:nodetypes="csccsscsccc"
                   style="fill:#00d400;stroke:none;stroke-width:0.0466979"
                   d="m 76.564233,216.62433 c 0.11032,-0.17318 3.125159,-4.91721 6.699548,-10.54229 3.57439,-5.62509 6.450269,-10.37378 6.457207,-10.35363 0.0071,0.0202 -0.155431,0.78267 -0.427162,1.49541 -1.414027,3.70915 -2.83491,7.00686 -4.707701,10.92605 -0.478876,1.00215 -2.79922,5.5277 -2.907291,5.67032 -0.06498,0.0858 -0.06819,0.0855 -0.150568,-0.006 -0.08354,-0.0939 -0.10556,-0.081 -2.589195,1.51332 -1.377766,0.88438 -2.520884,1.60903 -2.540271,1.61033 -0.01928,9.4e-4 0.0551,-0.13932 0.165433,-0.31249 z"
                   id="path1037"
                   inkscape:connector-curvature="0" />
                <path
                   sodipodi:nodetypes="sscsss"
                   style="fill:#a8fc00;stroke:none;stroke-width:0.0466979"
                   d="m 76.436157,216.70359 c -0.15903,-0.65662 -2.632356,-13.75376 -2.615314,-13.96039 0.0047,-0.0565 16.177534,-7.37452 16.08509,-7.19805 0.03964,0.065 -13.168246,20.87461 -13.382139,21.18151 -0.05819,0.0835 -0.06212,0.0826 -0.08759,-0.023 z"
                   id="path1041"
                   inkscape:connector-curvature="0" />
                <path
                   sodipodi:nodetypes="sscsscscss"
                   style="fill:#0cc800;stroke:none;stroke-width:0.0933958"
                   d="m 74.13514,202.31406 c 1.492608,-9.00575 2.097418,-15.46672 2.159885,-23.07295 l 0.02321,-2.82604 0.556766,2.45694 c 0.306208,1.35132 1.476007,6.5091 2.599537,11.46174 l 2.042806,9.00478 -3.544852,1.62554 c -1.949658,0.89406 -4.005842,1.89953 -4.104856,1.93582 -0.165719,0.0608 0.205337,-0.21068 0.26753,-0.58583 z"
                   id="path1051"
                   inkscape:connector-curvature="0" />
                <path
                   style="fill:#00dc00;stroke:none;stroke-width:0.264162"
                   d="m 80.859703,199.25806 c -0.06069,-0.17944 -1.308706,-5.67016 -2.773431,-12.20158 -2.50314,-11.16194 -2.681425,-12.15562 -2.967711,-16.54042 -0.373601,-5.7224 -0.855405,-9.48126 -1.906625,-14.87516 -0.443911,-2.27776 -0.761448,-4.18599 -0.705621,-4.24049 0.05581,-0.0545 3.306276,8.32753 7.22323,18.62673 3.916942,10.29919 7.718981,20.29102 8.44894,22.20407 l 1.327223,3.47826 -4.159206,1.93742 c -2.287557,1.06557 -4.208094,1.93742 -4.267848,1.93742 -0.05974,0 -0.158281,-0.14682 -0.218951,-0.32625 z"
                   id="path1065"
                   inkscape:connector-curvature="0" />
                <path
                   style="fill:#00c000;stroke:none;stroke-width:0.264162"
                   d="M 79.294178,169.86862 C 73.731072,155.23191 69.219234,143.22148 69.267849,143.1788 c 0.04856,-0.0428 6.093821,5.70365 13.433798,12.76967 l 13.345388,12.84727 -0.335364,2.45584 c -0.557968,4.08588 -1.588398,9.27768 -2.688959,13.54819 -1.017696,3.94896 -3.085707,10.79914 -3.437554,11.38672 -0.09699,0.16189 -4.727885,-11.68115 -10.29098,-26.31787 z"
                   id="path1075"
                   inkscape:connector-curvature="0" />
                <path
                   sodipodi:nodetypes="sccsss"
                   style="fill:#acf400;stroke:none;stroke-width:0.26891699"
                   d="m 78.543786,152.34791 c -5.038162,-4.78918 -9.162856,-8.88389 -9.165998,-9.09936 -0.0095,-0.69342 4.552468,-25.0298 4.695444,-25.02613 0.137525,0.004 12.760952,38.93971 13.433382,41.39259 0.194756,0.71041 0.318846,1.32514 0.275777,1.36608 -0.04308,0.041 -4.200454,-3.844 -9.238605,-8.63318 z"
                   id="path1101"
                   inkscape:connector-curvature="0" />
                <path
                   style="fill:#d0fc2c;stroke:none;stroke-width:0.52291697"
                   d=""
                   id="path1123"
                   transform="scale(0.26458333)"
                   inkscape:connector-curvature="0" />
                <path
                   id="path882"
                   d="m 92.255992,165.62699 c -2.895628,-2.8015 -3.812739,-3.74436 -3.882691,-3.99161 -0.07628,-0.26998 0.447707,-2.90167 3.155517,-15.84586 l 3.24707,-15.5221 0.220427,1.26641 c 0.861664,4.9504 1.480815,10.40852 1.801755,15.88336 0.157412,2.68534 0.156876,10.75664 -9.64e-4,13.37499 -0.137085,2.27493 -0.450242,6.00494 -0.629659,7.49956 l -0.120412,1.00313 -3.791115,-3.66788 z"
                   style="fill:#008c00;stroke:none;stroke-width:0.0966953"
                   inkscape:connector-curvature="0" />
                <path
                   sodipodi:nodetypes="ccccc"
                   id="path954"
                   d="m 79.400476,133.95373 c -0.160494,-2.42052 -0.0024,-14.33245 0.197779,-14.97994 0.150022,-0.48315 15.222883,10.82913 15.264917,11.46268 0.01928,0.29632 -13.72386,5.21882 -14.766381,5.28471 -0.37979,0.0241 -0.617496,-0.57931 -0.696315,-1.76745 z"
                   style="fill:#64e000;stroke:none;stroke-width:0.42047599"
                   inkscape:connector-curvature="0" />
                <path
                   transform="scale(0.26458333)"
                   id="path956"
                   d=""
                   style="fill:#009400;stroke:none;stroke-width:1.53128004"
                   inkscape:connector-curvature="0" />
                <path
                   sodipodi:nodetypes="cssccccccc"
                   id="path958"
                   d="m 77.197141,128.157 c -1.719509,-4.94752 -2.571998,-7.95015 -2.463784,-8.67798 0.195172,-1.31277 3.654956,-14.78915 4.959583,-16.06304 l 0.788811,-2.38331 0.04753,3.16309 c 0.04736,0.83189 -0.0036,7.25157 -0.11282,14.266 -0.109368,7.01439 -0.156781,13.24889 -0.105441,13.85442 0.05129,0.60555 -0.132733,2.98227 -0.291576,3.61612 -0.25219,1.00603 -0.527055,-1.17153 -2.822181,-7.7753 z"
                   style="fill:#008c00;stroke:none;stroke-width:0.39507601"
                   inkscape:connector-curvature="0" />
                <path
                   transform="scale(0.26458333)"
                   id="path962"
                   d=""
                   style="fill:#a0a0a0;stroke:none;stroke-width:1.53128004"
                   inkscape:connector-curvature="0" />
                <path
                   id="path964"
                   d="m 62.041881,128.06684 c 0,-0.13911 4.757471,-12.94206 8.118443,-21.84772 l 0.592802,-1.57075 1.810074,0.23557 c 3.127741,0.40706 2.990061,0.24836 2.987146,3.44305 -0.0024,1.59182 -0.108774,2.89496 -0.238599,2.89587 -0.129778,8.9e-4 -0.356679,1.75061 -0.504237,3.88821 -0.482719,6.99298 0.0095,6.20042 -5.868087,9.44956 -5.737703,3.17185 -6.897542,3.76142 -6.897542,3.50621 z"
                   style="fill:#00e000;stroke:none;stroke-width:0.37621"
                   inkscape:connector-curvature="0" />
                <path
                   sodipodi:nodetypes="sccsss"
                   id="path966"
                   d="m 70.895876,79.557529 c -2.495856,-1.891651 -4.583457,-3.573365 -4.639117,-3.73714 -0.0557,-0.163778 0.552518,-1.073044 1.351454,-2.0206 1.269706,-1.505864 1.541568,-1.648803 2.15879,-1.135035 1.42675,1.187627 6.268283,10.053118 5.761773,10.486677 -0.07331,0.06278 -2.137043,-1.702253 -4.6329,-3.593902 z"
                   style="fill:#5ce000;stroke:none;stroke-width:0.432827"
                   inkscape:connector-curvature="0" />
                <path
                   transform="scale(0.26458333)"
                   id="path968"
                   d=""
                   style="fill:#84fc00;stroke:none;stroke-width:1.53128004"
                   inkscape:connector-curvature="0" />
                <path
                   id="path970"
                   d="m 74.433873,117.63934 c 0.187497,-3.16156 0.344421,-7.17182 0.348729,-8.91172 0.0071,-2.91762 0.117937,-3.29059 1.424024,-4.80017 1.498143,-1.73154 4.449074,-4.065133 4.448205,-3.51766 -8.21e-4,0.51356 -6.111233,22.33824 -6.348475,22.67499 -0.117341,0.16656 -0.05986,-2.28389 0.127517,-5.44544 z"
                   style="fill:#00c000;stroke:none;stroke-width:0.48197201"
                   inkscape:connector-curvature="0" />
                <path
                   sodipodi:nodetypes="cccscccc"
                   id="path1036"
                   d="m 69.681401,96.730978 c -1.701777,-2.325208 -3.378252,-4.687799 -3.347679,-4.717738 0.01619,-0.01589 0.130992,0.02187 0.255022,0.08383 0.541652,0.27084 7.31448,4.507813 7.67073,4.749972 0.123149,0.08373 0.426993,-0.100305 0.239601,-0.02819 -0.465631,0.179391 -3.687721,1.249814 -3.76003,1.249153 -0.0438,-4.91e-4 -0.519719,-0.602103 -1.057659,-1.337104 z"
                   style="fill:#e6e6e6;stroke:none;stroke-width:0.0667408"
                   inkscape:connector-curvature="0" />
                <path
                   sodipodi:nodetypes="csscc"
                   id="path974"
                   d="m 78.948211,98.050376 c -3.75978,-7.660601 -5.896162,-12.524388 -5.896162,-13.423548 0,-0.960183 1.794545,-1.829465 2.32069,-1.829465 0.427048,0 6.340822,19.545457 6.027379,19.898107 -0.06093,0.0686 -1.164361,-2.02166 -2.451907,-4.645094 z"
                   style="fill:#70fc00;stroke:none;stroke-width:0.286753"
                   inkscape:connector-curvature="0" />
                <path
                   sodipodi:nodetypes="sscsssss"
                   id="path976"
                   d="m 69.114091,143.14917 c -1.297948,-3.40544 -3.158826,-7.36102 -5.410479,-11.50079 l -2.032892,-3.73759 0.625993,-0.35021 c 0.34429,-0.19262 3.30974,-1.88024 6.589894,-3.75028 3.280143,-1.87005 6.215157,-3.95617 6.240744,-3.9321 0.08426,0.0793 -4.911188,25.25613 -5.036099,25.38682 -0.06712,0.0702 -0.506842,-0.8819 -0.977161,-2.11585 z"
                   style="fill:#28fc00;stroke:none;stroke-width:0.189771"
                   inkscape:connector-curvature="0" />
                <path
                   transform="scale(0.26458333)"
                   id="path1010"
                   d=""
                   style="fill:#a0a0a0;stroke:none;stroke-width:0.54138798"
                   inkscape:connector-curvature="0" />
                <path
                   transform="scale(0.26458333)"
                   id="path1024"
                   d=""
                   style="fill:#e6e6e6;stroke:none;stroke-width:0.54138798"
                   inkscape:connector-curvature="0" />
                <path
                   transform="scale(0.26458333)"
                   id="path1026"
                   d=""
                   style="fill:#e6e6e6;stroke:none;stroke-width:0.54138798"
                   inkscape:connector-curvature="0" />
                <path
                   transform="scale(0.26458333)"
                   id="path1042"
                   d=""
                   style="fill:#a0a0a0;stroke:none;stroke-width:0.27069399"
                   inkscape:connector-curvature="0" />
                <path
                   id="path1052"
                   d="m 64.388348,79.240066 c -0.918218,-0.544863 -1.72014,-1.03631 -1.782084,-1.092098 -0.09687,-0.08727 -0.03725,-0.186018 0.427072,-0.706964 1.026026,-1.151137 3.162527,-3.456036 3.183377,-3.434289 0.01868,0.01956 -0.08557,4.311029 -0.137954,5.677955 l -0.02095,0.546056 z"
                   style="fill:#f2f2f2;stroke:none;stroke-width:0.0758378"
                   inkscape:connector-curvature="0" />
                <path
                   id="path1056"
                   d="m 70.009292,82.360576 -3.718984,-2.425434 -0.05558,-2.054018 c -0.03059,-1.129708 -0.0071,-2.054017 0.05391,-2.054017 0.06022,0 2.217843,1.559307 4.79472,3.465128 4.096811,3.029932 4.655445,3.505019 4.448015,3.782757 -0.722354,0.967179 -1.43558,1.731146 -1.60738,1.72174 -0.107702,-0.0059 -1.869292,-1.102163 -3.914728,-2.436156 z"
                   style="fill:#00c800;stroke:none;stroke-width:0.19339"
                   inkscape:connector-curvature="0" />
                <path
                   sodipodi:nodetypes="ssscss"
                   id="path1122"
                   d="m 61.404547,128.21812 c -3.128491,-5.14052 -7.575839,-11.05765 -12.138315,-16.14982 -1.01622,-1.13421 -1.814763,-2.08677 -1.774526,-2.11678 0.149045,-0.11116 23.696489,-6.07046 23.748936,-6.01028 0.03796,0.0436 -7.65316,21.94058 -8.874918,25.2633 -0.03463,0.0942 -0.5094,-0.24409 -0.961177,-0.98642 z"
                   style="fill:#0cc800;stroke:none;stroke-width:0.19339"
                   inkscape:connector-curvature="0" />
                <path
                   sodipodi:nodetypes="ccsscsccsc"
                   id="path1124"
                   d="m 47.67756,109.69789 c 1.802791,-1.95905 11.272283,-11.438291 11.476274,-11.48808 0.139192,-0.03392 0.257021,-0.162954 0.261841,-0.286604 0.0048,-0.123661 1.531679,-1.765715 3.393057,-3.649011 l 3.384322,-3.42418 2.772622,3.787516 c 1.868507,2.552455 2.772074,3.949416 2.770931,4.283996 -0.0024,0.601239 -0.550851,5.210043 -0.628397,5.277343 -0.100442,0.0871 -23.27066,5.93791 -23.513305,5.93791 -0.131087,0 -0.17841,-0.15527 0.08266,-0.43889 z"
                   style="fill:#54dc00;stroke:none;stroke-width:0.19339"
                   inkscape:connector-curvature="0" />
                <path
                   id="path1126"
                   d="m 45.028695,107.73784 c -1.626243,-1.59164 -2.614579,-2.40318 -3.25339,-2.67144 -1.778584,-0.74689 -6.592548,-4.57439 -5.773274,-4.59021 0.207395,-0.004 5.356913,-0.526754 11.443357,-1.161665 6.086443,-0.634912 11.215801,-1.12931 11.398561,-1.098656 0.228615,0.03829 -1.454359,1.870941 -5.393841,5.873421 -3.149365,3.19975 -5.806989,5.84403 -5.905849,5.8762 -0.09889,0.0321 -1.23085,-0.97028 -2.515564,-2.22765 z"
                   style="fill:#88e800;stroke:none;stroke-width:0.19339"
                   inkscape:connector-curvature="0" />
                <path
                   sodipodi:nodetypes="scssscsscss"
                   id="path1128"
                   d="m 43.160807,100.43878 c 0,-0.16447 22.121218,-15.316315 22.220233,-15.219665 0.03796,0.03701 -0.277812,0.599679 -0.701623,1.250364 -0.423799,0.650686 -0.770564,1.273028 -0.770564,1.382978 0,0.109941 0.577367,0.978885 1.283048,1.930973 l 1.283047,1.731092 -0.729994,0.799071 c -0.401497,0.43949 -2.023253,2.10103 -3.603892,3.692314 l -3.296133,2.739703 -7.630955,0.991883 c -4.416032,0.574007 -8.053167,0.776677 -8.053167,0.701287 z"
                   style="fill:#00ac00;stroke:none;stroke-width:0.19339"
                   inkscape:connector-curvature="0" />
                <path
                   sodipodi:nodetypes="scscsscssss"
                   id="path1130"
                   d="M 43.000598,99.465778 C 42.122392,96.015389 38.265894,79.388834 38.329409,79.32684 c 0.04415,-0.04313 5.182245,0.423502 11.417924,1.036966 l 11.337582,1.115393 1.852382,1.117009 c 1.018802,0.614354 2.186995,1.322519 2.595978,1.5737 l 0.09105,0.878931 -0.384668,0.273986 c -0.559614,0.398595 -5.724778,3.904449 -11.454055,7.825623 -5.729265,3.921163 -10.453199,7.129392 -10.497589,7.129392 -0.04451,0 -0.173739,-0.365425 -0.287416,-0.812062 z"
                   style="fill:#40fc00;stroke:none;stroke-width:0.19339"
                   inkscape:connector-curvature="0" />
                <path
                   id="path1054"
                   d="m 62.545915,78.133993 c 0,-0.08441 3.064393,-5.858777 3.351381,-6.31516 l 0.211608,-0.33649 0.03975,1.632516 0.03963,1.632513 -1.782464,1.726894 c -0.980351,0.949794 -1.799863,1.726897 -1.821142,1.726897 -0.02142,0 -0.03868,-0.03023 -0.03868,-0.06716 z"
                   style="fill:#e6e6e6;stroke:none;stroke-width:0.0826204"
                   inkscape:connector-curvature="0" />
                <path
                   sodipodi:nodetypes="ssscsccs"
                   id="path1134"
                   d="m 55.807011,74.917363 c -1.411183,-3.32167 -2.565785,-6.105998 -2.565785,-6.187396 0,-0.172654 11.359771,0.07599 12.767101,0.55554 l 0.189751,0.06466 -2.057526,4.071589 c -1.321906,2.615889 -3.814511,4.969849 -4.507613,5.880065 l -1.260151,1.654935 z"
                   style="fill:#38fc00;stroke:none;stroke-width:0.234458"
                   inkscape:connector-curvature="0" />
                <path
                   sodipodi:nodetypes="sssscccscs"
                   id="path1132"
                   d="m 50.35945,80.653727 c -6.487982,-0.783683 -11.827121,-1.190851 -11.827121,-1.251353 0,-0.16882 13.196521,-2.401238 13.933322,-2.35706 0.356429,0.02137 2.15271,0.179652 3.991727,0.351733 1.839004,0.172083 3.39433,0.238116 3.456309,0.146742 0.710561,-1.047756 6.145483,-8.117149 6.200025,-8.064582 0.04034,0.03882 -0.566644,1.46726 -1.34874,3.174312 -1.236028,2.697899 -1.497571,3.49847 -2.000189,6.122646 l -0.731776,3.287611 z"
                   style="fill:#00d000;stroke:none;stroke-width:0.212074"
                   inkscape:connector-curvature="0" />
                <path
                   style="fill:#a0a0a0;stroke:none;stroke-width:0.198171"
                   d=""
                   id="path1071"
                   transform="scale(0.26458333)"
                   inkscape:connector-curvature="0" />
                <path
                   style="fill:#006400;stroke:none;stroke-width:0.0500553"
                   d="m 33.64182,67.22375 c -0.111511,-0.01885 -0.447744,-0.03552 -0.747286,-0.0371 -0.301626,-0.0015 -0.544616,-0.02345 -0.544616,-0.04904 0,-0.0594 4.040138,-5.973726 4.109151,-6.015365 0.02856,-0.01723 0.05938,-0.02353 0.06855,-0.01399 0.0507,0.05292 1.320725,5.546655 1.380408,5.971126 l 0.03059,0.217016 -2.047019,-0.0192 c -1.125862,-0.01056 -2.138202,-0.0346 -2.249665,-0.05344 z"
                   id="path1097"
                   inkscape:connector-curvature="0" />
                <path
                   style="fill:#007400;stroke:none;stroke-width:0.0500553"
                   d="m 40.536279,65.761214 c -0.849871,-0.06389 -1.625005,-0.113829 -1.722544,-0.11097 -0.09759,0.0029 -0.211513,-0.0073 -0.253308,-0.02244 -0.04189,-0.0152 -0.269375,-0.04241 -0.505712,-0.06047 -0.236338,-0.01807 -0.46713,-0.05239 -0.512865,-0.07628 -0.0457,-0.02388 -0.110915,-0.149875 -0.144797,-0.279967 -0.135752,-0.520746 -0.96081,-4.089349 -0.948266,-4.101587 0.0071,-0.0071 0.240443,0.157011 0.51791,0.364938 0.722021,0.541069 4.716722,3.572207 5.310893,4.029853 l 0.500095,0.385183 -0.348098,-0.0061 c -0.19146,-0.0033 -1.043461,-0.05833 -1.893308,-0.122221 z"
                   id="path1102"
                   inkscape:connector-curvature="0" />
                <path
                   style="fill:#009800;stroke:none;stroke-width:0.0500553"
                   d="m 31.803541,65.733057 c -0.565169,-1.814161 -0.881277,-2.856212 -0.866425,-2.856212 0.0071,0 0.177881,0.05524 0.381265,0.122773 0.203373,0.06753 0.387811,0.111896 0.40984,0.09861 0.02202,-0.0133 0.04772,-0.0022 0.05712,0.02478 0.0095,0.02692 0.597431,0.250577 1.306861,0.497018 0.709453,0.246439 1.296507,0.454528 1.304588,0.462416 0.01642,0.01602 -1.988181,2.937795 -2.082531,3.035376 -0.04665,0.04827 -0.159708,-0.258213 -0.510675,-1.384744 z"
                   id="path1105"
                   inkscape:connector-curvature="0" />
                <path
                   style="fill:#a0a0a0;stroke:none;stroke-width:0.198171"
                   d=""
                   id="path1107"
                   transform="scale(0.26458333)"
                   inkscape:connector-curvature="0" />
                <path
                   style="fill:#00b800;stroke:none;stroke-width:0.0682421"
                   d="m 33.307538,63.715936 c -0.635954,-0.219559 -1.172965,-0.415759 -1.193339,-0.435999 -0.02035,-0.02025 0.02237,-0.08217 0.09497,-0.137633 0.190365,-0.145483 4.271942,-2.167515 4.306312,-2.133377 0.0238,0.02354 -1.913016,2.973181 -2.018885,3.074817 -0.01797,0.01726 -0.55303,-0.148245 -1.189008,-0.367808 z"
                   id="path1111"
                   inkscape:connector-curvature="0" />
                <path
                   style="fill:#008000;stroke:none;stroke-width:0.0575052"
                   d="m 32.27931,63.081436 c -0.16529,-0.393507 -1.375921,-3.642877 -1.375921,-3.693048 0,-0.03043 0.02749,-0.05533 0.06093,-0.05533 0.06986,0 0.948909,0.258578 2.782785,0.818576 0.703229,0.21474 1.302517,0.374231 1.331746,0.354419 0.02928,-0.01982 0.0532,-0.0117 0.0532,0.01803 0,0.02973 0.297044,0.144233 0.660101,0.254496 l 0.660101,0.200477 -0.289415,0.175731 c -0.587768,0.356904 -3.705298,2.09228 -3.758697,2.09228 -0.03035,0 -0.08652,-0.07452 -0.124792,-0.165593 z"
                   id="path1113"
                   inkscape:connector-curvature="0" />
                <path
                   style="fill:#006400;stroke:none;stroke-width:0.062726"
                   d="m 31.639512,63.110976 -0.738848,-0.271393 -0.754439,-1.771467 -0.754426,-1.771473 0.377148,-0.03173 c 0.207442,-0.01745 0.547614,-0.0061 0.755926,0.025 l 0.378766,0.05673 0.790998,1.942038 c 0.435045,1.068121 0.804719,1.977731 0.821499,2.021355 0.04701,0.12242 -0.07974,0.09359 -0.876624,-0.199081 z"
                   id="path1115"
                   inkscape:connector-curvature="0" />
                <path
                   style="fill:#008c00;stroke:none;stroke-width:0.0747979"
                   d="m 30.539784,62.565676 c -0.157983,-0.138469 -1.067036,-0.962715 -2.020123,-1.831672 -0.953098,-0.868961 -1.738383,-1.583787 -1.745095,-1.588508 -0.0071,-0.0047 0.301982,0.0019 0.685961,0.01449 1.005188,0.03312 1.957941,0.134818 2.028001,0.216486 0.06438,0.07499 1.24944,2.972459 1.336125,3.266685 0.0282,0.0959 0.04034,0.174338 0.0269,0.174338 -0.01369,0 -0.15377,-0.113287 -0.311741,-0.251747 z"
                   id="path1117"
                   inkscape:connector-curvature="0" />
                <path
                   style="fill:#008000;stroke:none;stroke-width:0.0614725"
                   d="m 29.347278,59.389214 c -0.109844,-0.02491 -0.393309,-0.04625 -0.629968,-0.04741 -0.334174,-0.0015 -1.19597,-0.0555 -1.89169,-0.118183 -0.07474,-0.0067 1.923572,-2.309634 2.004176,-2.309634 0.07021,0 2.068404,2.356064 2.069237,2.439829 6.19e-4,0.05996 -1.311431,0.08989 -1.551755,0.03539 z"
                   id="path1119"
                   inkscape:connector-curvature="0" />
                <path
                   style="fill:#009400;stroke:none;stroke-width:0.0587513"
                   d="m 26.67686,59.010057 c -0.14601,-0.119344 -0.716772,-0.599323 -1.268397,-1.066621 l -1.002915,-0.849633 0.530953,-0.03973 c 0.292022,-0.02186 1.319202,-0.05014 2.282619,-0.06287 l 1.751641,-0.02312 -0.151581,0.179882 c -0.536606,0.636766 -1.817131,2.081189 -1.844181,2.080238 -0.01809,-5.91e-4 -0.152116,-0.09879 -0.298139,-0.218138 z"
                   id="path1121"
                   inkscape:connector-curvature="0" />
                <path
                   style="fill:#004800;stroke:none;stroke-width:0.0507289"
                   d="m 24.284195,56.93609 c -0.04427,-0.08924 -0.279109,-0.555708 -0.521849,-1.036586 -0.242764,-0.480877 -0.431856,-0.882277 -0.420217,-0.892 0.0119,-0.0097 0.872494,-0.0041 1.913004,0.01249 l 1.891844,0.03016 0.969545,0.983049 0.969569,0.983046 -0.617389,0.02685 c -0.339565,0.01476 -1.401877,0.03324 -2.360699,0.04105 l -1.743311,0.01421 z"
                   id="path1125"
                   inkscape:connector-curvature="0" />
                <path
                   style="fill:#00a800;stroke:none;stroke-width:0.0564401"
                   d="m 21.650825,57.746514 c -0.0024,-0.05529 -0.02702,-0.468012 -0.05546,-0.917146 -0.04546,-0.715663 -0.06807,-1.878747 -0.03689,-1.885852 0.0059,-0.0015 0.51578,0.01056 1.132633,0.02652 l 1.121554,0.02902 0.252202,0.587466 c 0.138727,0.323108 0.240074,0.618981 0.22521,0.657498 -0.01488,0.03852 -0.556659,0.384875 -1.20405,0.769685 -1.513768,0.899783 -1.430748,0.857395 -1.435235,0.732822 z"
                   id="path1129"
                   inkscape:connector-curvature="0" />
                <path
                   style="fill:#008400;stroke:none;stroke-width:0.198171"
                   d=""
                   id="path1131"
                   transform="scale(0.26458333)"
                   inkscape:connector-curvature="0" />
                <path
                   style="fill:#006c00;stroke:none;stroke-width:0.0594453"
                   d="m 18.475695,57.539043 c -1.073427,-0.54625 -1.930712,-1.009037 -1.905054,-1.028412 0.11627,-0.08784 5.126383,-1.645651 5.170987,-1.607847 0.01309,0.01107 0.04653,0.3478 0.07426,0.748297 0.02797,0.4005 0.05724,0.752803 0.0651,0.782902 0.0071,0.0301 0.01071,0.366412 0.0071,0.747371 l -0.0071,0.692653 -0.673073,0.333354 c -0.370174,0.183344 -0.6971,0.331443 -0.726507,0.329109 -0.0294,-0.0021 -0.931701,-0.451176 -2.005128,-0.997427 z"
                   id="path1133"
                   inkscape:connector-curvature="0" />
                <path
                   style="fill:#009000;stroke:none;stroke-width:0.0641315"
                   d="m 16.253639,59.345971 c 0.0071,-0.242796 0.02785,-0.479892 0.04594,-0.526879 0.01809,-0.04699 0.087,-0.559568 0.15358,-1.139074 0.06653,-0.579505 0.144166,-1.072247 0.172681,-1.094985 0.02844,-0.02273 0.73786,0.27394 1.57633,0.659289 1.728637,0.794467 2.643058,1.237035 2.609914,1.263179 -0.01238,0.0098 -0.753653,0.188168 -1.647116,0.396329 -1.310313,0.30528 -2.340124,0.614395 -2.888214,0.866954 -0.01988,0.0092 -0.03011,-0.182015 -0.02309,-0.424813 z"
                   id="path1135"
                   inkscape:connector-curvature="0" />
                <path
                   style="fill:#00a800;stroke:none;stroke-width:0.0606905"
                   d="m 15.518123,57.862213 c -0.435331,-0.375967 -0.794342,-0.707704 -0.797852,-0.73719 -0.0036,-0.02949 0.388096,-0.168268 0.870209,-0.308398 1.095444,-0.318411 1.142476,-0.330107 1.09711,-0.272819 -0.02047,0.02576 -0.07164,0.384208 -0.113891,0.796551 -0.09628,0.940989 -0.1425,1.205437 -0.210406,1.205437 -0.02951,0 -0.40991,-0.307614 -0.845217,-0.683581 z"
                   id="path1139"
                   inkscape:connector-curvature="0" />
                <path
                   style="fill:#005800;stroke:none;stroke-width:0.198171"
                   d=""
                   id="path1141"
                   transform="scale(0.26458333)"
                   inkscape:connector-curvature="0" />
                <path
                   style="fill:#006400;stroke:none;stroke-width:0.0640233"
                   d="m 20.57929,58.42219 c 0.158697,-0.125017 2.389166,-1.562826 3.058205,-1.971386 0.296984,-0.18136 0.538974,-0.290792 0.559682,-0.253102 0.06284,0.114278 0.341183,0.973492 0.322309,0.994714 -0.02071,0.02337 -1.433307,0.502711 -2.702859,0.917212 -0.481352,0.157155 -0.888763,0.304607 -0.905377,0.327666 -0.01654,0.02307 -0.12522,0.05049 -0.241419,0.06094 -0.19666,0.01772 -0.202932,0.01244 -0.09056,-0.07606 z"
                   id="path1127"
                   inkscape:connector-curvature="0" />
                <path
                   style="fill:#a0a0a0;stroke:none;stroke-width:0.141578"
                   d="m 38.238165,99.706146 c 2.223139,-1.923197 3.808407,-3.253699 3.878871,-3.25548 0.16585,-0.0043 0.842088,3.13344 0.694518,3.222458 -0.08009,0.04832 -0.964558,0.163104 -1.965462,0.255055 -1.000892,0.09194 -2.142213,0.205121 -2.536284,0.251481 l -0.716475,0.0843 z"
                   id="path1149"
                   inkscape:connector-curvature="0" />
                <path
                   style="fill:#50fc00;stroke:none;stroke-width:0.19306201"
                   d="m 36.962068,100.29122 c 1.808051,-1.652905 5.544077,-4.679676 5.647637,-4.575491 0.138656,0.139479 0.973306,3.917718 0.884776,4.005083 -0.07057,0.06954 -5.500127,0.644438 -6.086717,0.644438 -0.289665,0 -0.490241,-0.0333 -0.445696,-0.074 z"
                   id="path1151"
                   inkscape:connector-curvature="0" />
                <path
                   sodipodi:nodetypes="sscccscs"
                   id="path1058"
                   d="m 65.800971,72.642772 c -0.273338,-2.062054 -0.172296,-4.43453 -0.05415,-4.43453 0.118056,0 1.521184,1.302282 2.555219,2.190237 l 1.764848,2.382162 -0.958297,0.220709 c -0.484802,0.5014 -1.427356,1.476785 -2.09455,2.167523 l -0.75245,0.948802 z"
                   style="fill:#70e400;stroke:none;stroke-width:0.235599"
                   inkscape:connector-curvature="0" />
                <path
                   sodipodi:nodetypes="scssscsss"
                   id="path1136"
                   d="m 54.463532,77.295084 c -2.16235,-0.160636 -2.511162,-0.234071 -2.412445,-0.507888 0.06343,-0.176055 0.475496,-2.142189 0.915599,-4.369187 0.440103,-2.226997 0.287888,-3.742006 0.365458,-3.742006 0.07759,0 1.77666,1.75649 3.072013,4.278634 l 2.35519,4.58571 -0.883991,-0.02873 c -0.486183,-0.0158 -2.021503,-0.113242 -3.411824,-0.216525 z"
                   style="fill:#6cfc00;stroke:none;stroke-width:0.219024"
                   inkscape:connector-curvature="0" />
                <path
                   sodipodi:nodetypes="ssccss"
                   id="path1138"
                   d="m 38.174699,79.332324 c -0.659726,0 15.196935,-10.608313 15.246074,-10.553671 0.06248,0.0695 -1.391988,8.38204 -1.477519,8.444167 -0.09068,0.06593 -13.299462,2.235726 -13.595137,2.232013 -0.171919,-0.002 0.24363,-0.122509 0.09528,-0.122509 z"
                   style="fill:#00b800;stroke:none;stroke-width:0.18565001"
                   inkscape:connector-curvature="0" />
                <path
                   style="fill:#009400;stroke:none;stroke-width:0.09963581"
                   d="m 35.3647,99.481543 c -1.483725,-2.516981 -2.492054,-5.540663 -2.932218,-8.792863 -0.184743,-1.364991 -0.160218,-4.669941 0.0451,-6.077783 0.206232,-1.414119 0.568137,-3.029429 0.965472,-4.30925 l 0.301596,-0.97145 h 2.168155 2.168154 l -0.870656,10.387034 c -0.478861,5.71287 -0.872966,10.465499 -0.875789,10.561399 -0.0031,0.10523 -0.08284,0.17436 -0.201145,0.17436 -0.142367,0 -0.352737,-0.26587 -0.768669,-0.971447 z"
                   id="path895"
                   inkscape:connector-curvature="0" />
                <path
                   style="fill:#006400;stroke:none;stroke-width:0.3765763"
                   d="m 128.0437,298.90689 c 0.52268,-2.08253 4.37844,-10.10461 6.92447,-14.40667 5.88813,-9.94926 13.76119,-18.93097 22.31363,-25.45573 4.30426,-3.28378 15.73968,-9.99406 15.38193,-9.02609 -0.0803,0.21718 -6.65955,11.51378 -14.62061,25.10357 l -14.47467,24.7087 h -7.8783 -7.8783 z"
                   id="path901"
                   inkscape:connector-curvature="0"
                   transform="scale(0.26458333)" />
                <path
                   style="fill:#008400;stroke:none;stroke-width:0.3765763"
                   d="m 188.52228,254.05604 c -6.7313,-2.98319 -12.38965,-5.47784 -12.5741,-5.54366 -0.46071,-0.16439 7.18701,-2.71664 10.87951,-3.63078 9.72302,-2.40709 21.29244,-2.69698 31.17644,-0.78118 5.14648,0.99754 9.42403,2.28853 8.99715,2.7154 -0.18695,0.18695 -5.47962,3.1257 -11.76149,6.53055 -9.63003,5.2196 -11.66135,6.18617 -12.95018,6.16215 -1.10949,-0.0207 -4.88421,-1.51564 -13.76733,-5.45248 z"
                   id="path907"
                   inkscape:connector-curvature="0"
                   transform="scale(0.26458333)" />
                <path
                   style="fill:#007800;stroke:none;stroke-width:0.10919873"
                   d="m 37.831869,79.031493 c 0,-0.06598 7.717549,-12.865436 7.813764,-12.958992 0.0106,-0.01031 0.44013,-0.297546 0.815267,-0.318143 0.03635,-0.002 0.07219,0.134224 0.107088,0.134908 0.07071,0.0014 -0.229204,-0.164915 -0.15288,-0.151596 0.360051,0.06283 1.151798,0.41704 1.58692,0.565023 2.194855,0.746461 5.313954,2.153581 5.645273,2.361015 0.100709,0.06305 -2.306219,1.683088 -7.798611,5.24906 -4.369347,2.836827 -7.960591,5.157868 -7.980544,5.157868 -0.01996,0 -0.03628,-0.01761 -0.03628,-0.03915 z"
                   id="path911"
                   inkscape:connector-curvature="0"
                   sodipodi:nodetypes="ccsssscsscc" />
              </g>
            </g>
          </g>
        </g>
      </g>
    </g>
  </g>
</svg>
